HIERARCHY
ROOT Hips
{
	OFFSET 0.000000 0.000000 0.000000
	CHANNELS 6 Xposition Yposition Zposition Zrotation Yrotation Xrotation 
	JOINT LHipJoint
	{
		OFFSET 0.000000 0.000000 0.000000
		CHANNELS 3 Zrotation Yrotation Xrotation
		JOINT LeftUpLeg
		{
			OFFSET 1.363060 -1.794630 0.839290
			CHANNELS 3 Zrotation Yrotation Xrotation
			JOINT LeftLeg
			{
				OFFSET 2.448110 -6.726130 0.000000
				CHANNELS 3 Zrotation Yrotation Xrotation
				JOINT LeftFoot
				{
					OFFSET 2.562200 -7.039590 0.000000
					CHANNELS 3 Zrotation Yrotation Xrotation
					JOINT LeftToeBase
					{
						OFFSET 0.157640 -0.433110 2.322550
						CHANNELS 3 Zrotation Yrotation Xrotation
						End Site
						{
							OFFSET 0.000000 0.000000 0.000000
						}
					}
				}
			}
		}
	}
	JOINT RHipJoint
	{
		OFFSET 0.000000 0.000000 0.000000
		CHANNELS 3 Zrotation Yrotation Xrotation
		JOINT RightUpLeg
		{
			OFFSET -1.305520 -1.794630 0.839290
			CHANNELS 3 Zrotation Yrotation Xrotation
			JOINT RightLeg
			{
				OFFSET -2.542530 -6.985550 0.000000
				CHANNELS 3 Zrotation Yrotation Xrotation
				JOINT RightFoot
				{
					OFFSET -2.568260 -7.056230 0.000000
					CHANNELS 3 Zrotation Yrotation Xrotation
					JOINT RightToeBase
					{
						OFFSET -0.164730 -0.452590 2.363150
						CHANNELS 3 Zrotation Yrotation Xrotation
						End Site
						{
							OFFSET 0.000000 0.000000 0.000000
						}
					}
				}
			}
		}
	}
	JOINT LowerBack
	{
		OFFSET 0.000000 0.000000 0.000000
		CHANNELS 3 Zrotation Yrotation Xrotation
		JOINT Spine
		{
			OFFSET 0.028270 2.035590 -0.193380
			CHANNELS 3 Zrotation Yrotation Xrotation
			JOINT Spine1
			{
				OFFSET 0.056720 2.048850 -0.042750
				CHANNELS 3 Zrotation Yrotation Xrotation
				JOINT Neck
				{
					OFFSET 0.000000 0.000000 0.000000
					CHANNELS 3 Zrotation Yrotation Xrotation
					JOINT Neck1
					{
						OFFSET -0.054170 1.746240 0.172020
						CHANNELS 3 Zrotation Yrotation Xrotation
						JOINT Head
						{
							OFFSET 0.104070 1.761360 -0.123970
							CHANNELS 3 Zrotation Yrotation Xrotation
							End Site
							{
								OFFSET 0.000000 0.000000 0.000000
							}
						}
					}
				}
				JOINT LeftShoulder
				{
					OFFSET 0.000000 0.000000 0.000000
					CHANNELS 3 Zrotation Yrotation Xrotation
					JOINT LeftArm
					{
						OFFSET 3.362410 1.200890 -0.311210
						CHANNELS 3 Zrotation Yrotation Xrotation
						JOINT LeftForeArm
						{
							OFFSET 4.983000 -0.000000 -0.000000
							CHANNELS 3 Zrotation Yrotation Xrotation
							JOINT LeftHand
							{
								OFFSET 3.483560 -0.000000 -0.000000
								CHANNELS 3 Zrotation Yrotation Xrotation
								JOINT LeftFingerBase
								{
									OFFSET 0.000000 0.000000 0.000000
									CHANNELS 3 Zrotation Yrotation Xrotation
									JOINT LeftHandIndex1
									{
										OFFSET 0.715260 -0.000000 -0.000000
										CHANNELS 3 Zrotation Yrotation Xrotation
										End Site
										{
											OFFSET 0.000000 0.000000 0.000000
										}
									}
								}
								JOINT LThumb
								{
									OFFSET 0.000000 0.000000 0.000000
									CHANNELS 3 Zrotation Yrotation Xrotation
									End Site
									{
										OFFSET 0.000000 0.000000 0.000000
									}
								}
							}
						}
					}
				}
				JOINT RightShoulder
				{
					OFFSET 0.000000 0.000000 0.000000
					CHANNELS 3 Zrotation Yrotation Xrotation
					JOINT RightArm
					{
						OFFSET -3.136600 1.374050 -0.404650
						CHANNELS 3 Zrotation Yrotation Xrotation
						JOINT RightForeArm
						{
							OFFSET -5.241900 -0.000000 -0.000000
							CHANNELS 3 Zrotation Yrotation Xrotation
							JOINT RightHand
							{
								OFFSET -3.444170 -0.000000 -0.000000
								CHANNELS 3 Zrotation Yrotation Xrotation
								JOINT RightFingerBase
								{
									OFFSET 0.000000 0.000000 0.000000
									CHANNELS 3 Zrotation Yrotation Xrotation
									JOINT RightHandIndex1
									{
										OFFSET -0.622530 -0.000000 -0.000000
										CHANNELS 3 Zrotation Yrotation Xrotation
										End Site
										{
											OFFSET 0.000000 0.000000 0.000000
										}
									}
								}
								JOINT RThumb
								{
									OFFSET 0.000000 0.000000 0.000000
									CHANNELS 3 Zrotation Yrotation Xrotation
									End Site
									{
										OFFSET 0.000000 0.000000 0.000000
									}
								}
							}
						}
					}
				}
			}
		}
	}
}
MOTION
Frames: 12
Frame Time: 0.008333
10.653616 17.814981 2.101487 177.062562 1.488540 -157.013641 11.145607 1.224467 -2.413938 -11.006738 -26.194741 -67.411082 8.210734 22.957120 59.517959 0.377148 -4.160102 -17.882936 4.106300 -12.300500 -36.803600 -14.380246 -3.049626 -2.279889 32.991794 16.564193 -10.492631 0.553262 -5.291825 14.700996 -1.542972 0.611524 -23.194605 -2.141500 9.154800 -26.280700 -5.390250 0.600380 -16.967775 0.743062 1.608823 -3.963646 -0.607814 -0.070294 14.146742 -11.018034 -0.985735 -2.108231 10.798551 -5.426570 28.489386 1.916100 -1.896100 6.287700 15.891703 -1.195558 1.098351 -104.959467 -1.127089 13.969599 11.554423 -12.962521 -1.653644 -1.255094 1.179606 9.096837 17.347405 -12.078541 -4.371100 -7.125000 0.000000 0.000000 -5.891500 16.325600 4.019400 -11.458639 0.489735 0.028176 98.010735 4.248446 23.308221 -19.426538 31.088335 -6.781129 0.262319 3.528835 -6.526466 -11.726806 -48.078378 9.748900 7.125000 0.000000 0.000000 60.920900 -75.349600 -47.009900 
10.640952 17.811160 2.005086 177.178253 1.559123 -156.693390 11.142079 1.224693 -2.393433 -10.974871 -26.193026 -67.129519 8.104602 22.872047 59.176046 0.291877 -4.441624 -17.503221 3.429500 -11.359800 -33.503100 -14.369169 -3.059876 -2.283073 33.017452 16.384460 -10.615665 0.539358 -5.316476 14.758209 -1.534990 0.864010 -23.116967 -2.160800 9.193200 -26.401500 -5.371962 0.690962 -17.164307 0.709438 1.711808 -4.029231 -0.645941 -0.025595 14.025542 -11.254945 -1.198760 -2.633522 10.890226 -5.730233 29.160487 2.003100 -2.051200 6.656200 15.888204 -1.131567 1.072380 -104.851064 -1.024218 13.924020 11.560930 -12.980060 -1.655934 -1.269400 1.190947 9.118563 17.509475 -12.158846 -4.444600 -7.125000 0.000000 0.000000 -5.770500 16.218500 3.949400 -11.485371 0.514185 0.012979 98.083020 3.951352 23.306962 -19.488833 31.182745 -6.824923 0.356742 3.461732 -6.627126 -13.072128 -46.653226 10.667400 7.125000 0.000000 0.000000 54.650900 -75.236800 -41.470200 
10.625122 17.809413 1.908467 177.072596 1.724975 -156.501582 11.130570 1.232507 -2.350297 -11.409569 -26.195326 -66.549301 7.949006 22.747975 58.690201 0.230109 -4.776042 -17.470202 1.783300 -8.399300 -23.933700 -14.336891 -3.087794 -2.334277 32.849545 15.998748 -10.456549 0.548583 -5.199490 14.537019 -1.514883 0.769250 -22.917859 -2.480500 9.802400 -28.339200 -5.587319 0.702193 -17.348723 0.645590 1.795857 -4.039143 -0.655050 -0.008528 14.094757 -11.380729 -1.330366 -3.157318 10.960364 -5.878850 29.648042 2.060800 -2.114800 6.950100 15.900224 -1.055732 1.052984 -104.735566 -0.760583 14.044109 11.742266 -13.295504 -1.724117 -1.245204 1.075839 8.918915 17.191009 -11.447939 -4.088500 -7.125000 0.000000 0.000000 -6.005600 17.097400 3.996700 -11.514858 0.521547 0.004346 98.117985 3.787218 23.488450 -19.566307 31.290700 -6.874135 0.488112 3.365744 -6.477497 -14.599135 -44.749486 11.601400 7.125000 0.000000 0.000000 46.739600 -74.768000 -34.475300 
10.610602 17.807230 1.814687 177.050790 1.893163 -156.359625 11.120707 1.210965 -2.325330 -11.887486 -26.077366 -65.801809 7.738537 22.605441 58.069660 0.322750 -5.005290 -18.819778 1.569300 -7.904600 -22.424800 -14.317936 -3.097843 -2.364216 32.806265 15.886525 -10.159013 0.571459 -5.082533 14.310871 -1.499084 0.381324 -22.781979 -2.761800 10.299100 -29.950700 -5.756651 0.763123 -17.440214 0.585024 1.916608 -4.053274 -0.683813 0.046940 14.061634 -11.109357 -1.219240 -2.722615 10.911027 -5.692076 28.896176 1.975100 -2.009700 6.587600 15.917491 -1.082549 1.057641 -104.656556 -0.622350 13.871458 11.801260 -13.408737 -1.744316 -1.257047 1.046751 8.825192 17.269016 -11.285047 -4.045300 -7.125000 0.000000 0.000000 -5.944000 17.290200 3.930100 -11.522319 0.472025 0.006762 98.282258 3.637891 23.378650 -19.575054 31.303051 -6.881611 0.578933 3.327726 -6.064271 -15.499631 -44.045070 12.196700 7.125000 0.000000 0.000000 43.565900 -74.667200 -31.849000 
10.597174 17.806793 1.721125 177.123070 2.008407 -156.147183 11.111477 1.188894 -2.309367 -12.230092 -25.908882 -65.230634 7.598873 22.506611 57.659893 0.413680 -5.026500 -19.726346 1.054400 -6.529100 -18.327500 -14.317646 -3.088570 -2.355063 32.855934 16.023064 -9.936674 0.590958 -5.015404 14.168449 -1.505175 0.143503 -22.829415 -2.873600 10.487600 -30.570500 -5.680878 0.535791 -17.562501 0.542004 2.107833 -4.095987 -0.707762 0.357731 13.955573 -11.068919 -1.258991 -2.714803 10.865635 -5.765561 29.024814 1.949500 -2.048000 6.633400 15.903921 -1.074950 1.054012 -104.650010 -0.662358 13.373608 11.685350 -13.224262 -1.698495 -1.277867 1.135659 8.945586 17.547790 -11.883857 -4.344700 -7.125000 0.000000 0.000000 -5.738600 16.556500 3.885100 -11.522901 0.476987 0.006364 98.411683 3.437085 23.118879 -19.540623 31.275901 -6.866430 0.519779 3.407115 -6.017306 -14.949150 -45.544926 12.026800 7.125000 0.000000 0.000000 49.058200 -75.384500 -36.927400 
10.583309 17.810505 1.625270 177.165968 2.041267 -155.939739 11.100081 1.179546 -2.298193 -12.585804 -25.786338 -64.837954 7.586274 22.490054 57.637176 0.501705 -4.976262 -20.434754 1.725400 -8.269100 -23.534300 -14.312627 -3.082047 -2.360372 32.874768 16.076007 -9.751736 0.590881 -4.991753 14.153556 -1.520005 0.135303 -22.912896 -2.875800 10.491200 -30.582300 -5.769848 0.524147 -17.766237 0.532614 2.135050 -4.114476 -0.659674 0.357241 14.011123 -11.165634 -1.412579 -3.056485 10.777429 -5.954102 29.577396 1.943200 -2.147000 6.899300 15.892908 -1.027638 1.044657 -104.667688 -0.666215 13.121916 11.679919 -13.224533 -1.698143 -1.265315 1.174755 8.917456 17.481512 -12.244442 -4.459900 -7.125000 0.000000 0.000000 -5.798400 16.143800 3.978200 -11.513998 0.502457 0.006639 98.369236 3.336812 23.100292 -19.413609 31.135776 -6.787161 0.445253 3.420906 -6.125262 -13.922054 -45.843523 11.235500 7.125000 0.000000 0.000000 51.067700 -75.145800 -38.370400 
10.568024 17.816619 1.535311 177.192031 1.956561 -155.749000 11.095977 1.180632 -2.282796 -12.816786 -25.815587 -64.700305 7.669194 22.541377 57.904781 0.567948 -5.051802 -21.084589 2.314100 -9.491700 -27.345900 -14.298067 -3.097861 -2.382522 32.883495 15.900725 -9.591371 0.597341 -4.927982 14.044293 -1.507232 0.022752 -22.791327 -3.123600 10.892400 -31.917900 -5.855715 0.515135 -17.841079 0.495284 2.169672 -4.136005 -0.694455 0.379759 13.981042 -11.110591 -1.404451 -3.014703 10.804431 -5.933801 29.404928 1.939200 -2.129900 6.833300 15.899122 -1.034311 1.035838 -104.558679 -0.669539 13.311710 11.734014 -13.311700 -1.717717 -1.271613 1.146884 8.736573 17.500778 -12.092669 -4.406200 -7.125000 0.000000 0.000000 -5.781700 16.325500 3.943700 -11.518377 0.491793 0.008513 98.457350 3.202059 22.971915 -19.281579 30.984365 -6.704852 0.445417 3.369639 -5.924019 -13.483192 -44.986696 10.736800 7.125000 0.000000 0.000000 48.626500 -74.476100 -35.737500 
10.549246 17.827100 1.448081 177.261264 1.784862 -155.512573 11.105349 1.193074 -2.267731 -12.745861 -26.062301 -64.840729 7.812102 22.608168 58.307542 0.381683 -5.901909 -20.616024 1.488000 -7.706500 -21.826000 -14.286043 -3.121167 -2.405215 32.907256 15.672714 -9.493473 0.604966 -4.853833 13.890903 -1.470505 -0.053673 -22.491691 -3.342800 11.230300 -33.060700 -6.002460 0.888026 -17.764999 0.457956 2.114023 -4.202329 -0.818561 0.127963 13.709891 -10.912690 -1.398875 -2.779591 10.896471 -5.999428 29.134497 1.918500 -2.150500 6.703100 15.929603 -1.046320 1.020646 -104.371063 -0.504060 13.800285 11.824765 -13.456497 -1.751641 -1.289802 1.077849 8.358264 17.555060 -11.662589 -4.256400 -7.125000 0.000000 0.000000 -5.732000 16.833600 3.845900 -11.537368 0.468365 0.008618 98.650689 2.874912 22.748553 -19.219875 30.928122 -6.673000 0.468280 3.364852 -5.689757 -13.617924 -44.973330 10.843400 7.125000 0.000000 0.000000 48.442100 -74.519100 -35.627500 
10.529377 17.839109 1.362380 177.423798 1.604496 -155.191072 11.116802 1.192432 -2.270363 -12.371834 -26.377194 -65.220242 7.947537 22.716367 58.727808 0.422950 -5.767084 -20.767688 1.546500 -7.849700 -22.258400 -14.299234 -3.125584 -2.385088 33.012626 15.715107 -9.532834 0.599516 -4.870797 13.917389 -1.424815 -0.038764 -22.146951 -3.166500 10.959800 -32.144600 -5.932049 0.904630 -17.752633 0.453961 2.087274 -4.275270 -0.861552 0.134692 13.456214 -10.842801 -1.322170 -2.578308 10.980866 -5.930717 28.829309 1.930900 -2.113700 6.568700 15.957683 -1.049275 1.006534 -104.297953 -0.282761 14.016570 11.936976 -13.651349 -1.798617 -1.285766 1.050252 8.027485 17.470843 -11.638003 -4.218800 -7.125000 0.000000 0.000000 -5.798600 16.886800 3.884300 -11.546895 0.444532 0.006921 98.743500 2.635641 22.474010 -19.114000 30.817503 -6.619397 0.483703 3.397230 -5.549352 -13.870953 -45.503513 11.138300 7.125000 0.000000 0.000000 49.950800 -74.933200 -37.245700 
10.509944 17.852319 1.276023 177.528648 1.523482 -154.953695 11.124254 1.196372 -2.269213 -12.055638 -26.661276 -65.524799 8.044389 22.796124 59.027786 0.456695 -5.637370 -20.870037 1.303400 -7.232500 -20.406000 -14.312036 -3.131983 -2.380324 33.053205 15.729407 -9.486900 0.596349 -4.850468 13.874417 -1.369855 -0.045406 -21.707648 -3.052600 10.779700 -31.540500 -5.945558 0.902300 -17.756654 0.456911 2.072205 -4.310475 -0.850797 0.131400 13.347554 -10.826324 -1.268745 -2.491291 11.023939 -5.823507 28.474714 1.940500 -2.057400 6.438700 15.954637 -1.067652 1.000181 -104.321290 -0.345638 13.713709 11.912771 -13.619578 -1.791097 -1.282435 1.122655 8.132255 17.540733 -12.216758 -4.452900 -7.125000 0.000000 0.000000 -5.758700 16.204700 3.943100 -11.544585 0.434709 0.004716 98.772913 2.502402 22.206744 -19.039138 30.736695 -6.582205 0.497048 3.425729 -5.473146 -14.147790 -45.922151 11.435600 7.125000 0.000000 0.000000 51.148500 -75.282300 -38.566800 
10.489201 17.870332 1.184972 177.556174 1.430972 -154.885512 11.122387 1.209118 -2.243521 -12.054699 -26.892328 -65.509506 8.090191 22.827411 59.167267 0.476561 -5.488307 -20.831779 1.271300 -7.146300 -20.149500 -14.302374 -3.166803 -2.422128 33.036046 15.457252 -9.165164 0.599771 -4.716675 13.635328 -1.314325 -0.050290 -21.189796 -3.048700 10.773500 -31.519600 -6.015314 0.895321 -17.686559 0.440127 2.073606 -4.324578 -0.883420 0.137475 13.270892 -10.729510 -1.265080 -2.198007 11.070223 -5.836803 28.014419 1.920900 -2.064300 6.223200 15.947488 -1.108890 1.000170 -104.308979 -0.471498 13.487468 11.846408 -13.506492 -1.761923 -1.300433 1.156177 8.281269 17.755429 -12.369774 -4.573300 -7.125000 0.000000 0.000000 -5.598200 15.996700 3.857300 -11.548118 0.407162 0.008076 98.826570 2.156455 22.121510 -19.095625 30.810537 -6.614332 0.502971 3.413685 -5.490539 -14.237903 -45.739735 11.477200 7.125000 0.000000 0.000000 50.424400 -75.214500 -37.900700 
10.469549 17.893150 1.098288 177.608120 1.169342 -154.738692 11.121044 1.217997 -2.221514 -12.162551 -27.101327 -65.412506 8.094747 22.828652 59.181199 0.480574 -5.423097 -20.778687 1.975600 -8.815100 -25.218600 -14.300965 -3.190859 -2.454316 33.102593 15.263717 -8.920950 0.611710 -4.623021 13.463839 -1.267992 -0.317209 -20.788081 -3.212600 11.031500 -32.386200 -6.040636 0.840969 -17.655065 0.433460 2.009255 -4.331391 -0.922707 0.108625 13.264296 -10.779577 -1.373366 -2.213824 11.277873 -6.065514 28.008425 1.984500 -2.172100 6.236800 15.946990 -1.130292 0.988362 -104.247293 -0.604774 13.596491 11.881769 -13.552498 -1.771269 -1.304447 1.110491 8.081545 17.727859 -12.036856 -4.439500 -7.125000 0.000000 0.000000 -5.611500 16.389400 3.818600 -11.555381 0.394350 0.008502 98.913797 1.947913 21.953802 -19.050399 30.767051 -6.587737 0.518968 3.380997 -5.468171 -14.336237 -45.145855 11.454800 7.125000 0.000000 0.000000 48.320300 -74.907600 -35.884800 
